HIERARCHY
ROOT Hips
{
	OFFSET 0.00000 0.00000 0.00000
	CHANNELS 6 Xposition Yposition Zposition Zrotation Yrotation Xrotation 
	JOINT LHipJoint
	{
		OFFSET 0 0 0
		CHANNELS 3 Zrotation Yrotation Xrotation
		JOINT LeftHip
		{
			OFFSET 1.62329 -1.80800 0.67318
			CHANNELS 3 Zrotation Yrotation Xrotation
			JOINT LeftKnee
			{
				OFFSET 2.57139 -7.06484 0.00000
				CHANNELS 3 Zrotation Yrotation Xrotation
				JOINT LeftAnkle
				{
					OFFSET 2.52017 -6.92413 0.00000
					CHANNELS 3 Zrotation Yrotation Xrotation
					JOINT LeftToe
					{
						OFFSET 0.23295 -0.64001 2.10214
						CHANNELS 3 Zrotation Yrotation Xrotation
						End Site
						{
							OFFSET 0.00000 -0.00000 1.10139
						}
					}
				}
			}
		}
	}
	JOINT RHipJoint
	{
		OFFSET 0 0 0
		CHANNELS 3 Zrotation Yrotation Xrotation
		JOINT RightHip
		{
			OFFSET -1.48061 -1.80800 0.67318
			CHANNELS 3 Zrotation Yrotation Xrotation
			JOINT RightKnee
			{
				OFFSET -2.63258 -7.23296 0.00000
				CHANNELS 3 Zrotation Yrotation Xrotation
				JOINT RightAnkle
				{
					OFFSET -2.54779 -7.00000 0.00000
					CHANNELS 3 Zrotation Yrotation Xrotation
					JOINT RightToe
					{
						OFFSET -0.23067 -0.63376 2.12161
						CHANNELS 3 Zrotation Yrotation Xrotation
						End Site
						{
							OFFSET -0.00000 -0.00000 1.11000
						}
					}
				}
			}
		}
	}
	JOINT lowerback
	{
		OFFSET 0 0 0
		CHANNELS 3 Zrotation Yrotation Xrotation
		JOINT Chest
		{
			OFFSET -0.02108 2.07573 -0.16981
			CHANNELS 3 Zrotation Yrotation Xrotation
			JOINT Chest2
			{
				OFFSET 0.05070 2.08439 -0.03141
				CHANNELS 3 Zrotation Yrotation Xrotation
				JOINT lowerneck
				{
					OFFSET 0 0 0
					CHANNELS 3 Zrotation Yrotation Xrotation
					JOINT Neck
					{
						OFFSET -0.10731 1.60408 0.31370
						CHANNELS 3 Zrotation Yrotation Xrotation
						JOINT Head
						{
							OFFSET 0.08411 1.65679 -0.30822
							CHANNELS 3 Zrotation Yrotation Xrotation
							End Site
							{
								OFFSET 0.03911 1.69149 -0.14146
							}
						}
					}
				}
				JOINT LeftCollar
				{
					OFFSET 0 0 0
					CHANNELS 3 Zrotation Yrotation Xrotation
					JOINT LeftShoulder
					{
						OFFSET 3.52315 0.73219 -0.54694
CHANNELS 3 Zrotation Xrotation Yrotation
						JOINT LeftElbow
						{
OFFSET 0 -5.324620 -0.000000
CHANNELS 3 Zrotation Xrotation Yrotation
							JOINT LeftWrist
							{
OFFSET 0 -3.484020 -0.000000
CHANNELS 3 Zrotation Xrotation Yrotation
								JOINT lhand
								{
									OFFSET 0 0 0
CHANNELS 3 Zrotation Xrotation Yrotation
									JOINT LFingers
									{
OFFSET 0 -0.572480 -0.000000
CHANNELS 3 Zrotation Xrotation Yrotation
										End Site
										{
OFFSET 0 -0.461540 -0.000000
										}
									}
								}
								JOINT LThumb
								{
OFFSET 0 0.000000 0.000000
CHANNELS 3 Zrotation Xrotation Yrotation
									End Site
									{
OFFSET 0 -0.468590 0.468590
									}
								}
							}
						}
					}
				}
				JOINT RightCollar
				{
					OFFSET 0 0 0
					CHANNELS 3 Zrotation Yrotation Xrotation
					JOINT RightShoulder
					{
						OFFSET -3.41766 0.93592 -0.10019
CHANNELS 3 Zrotation Xrotation Yrotation
						JOINT RightElbow
						{
OFFSET 0 -5.335890 -0.000000
CHANNELS 3 Zrotation Xrotation Yrotation
							JOINT RightWrist
							{
OFFSET 0 -3.641340 -0.000000
CHANNELS 3 Zrotation Xrotation Yrotation
								JOINT rhand
								{
									OFFSET 0 0 0
CHANNELS 3 Zrotation Xrotation Yrotation
									JOINT RFingers
									{
OFFSET 0 -0.734810 -0.000000
CHANNELS 3 Zrotation Xrotation Yrotation
										End Site
										{
OFFSET 0 -0.592420 -0.000000
										}
									}
								}
								JOINT RThumb
								{
OFFSET 0 0.000000 0.000000
CHANNELS 3 Zrotation Xrotation Yrotation
									End Site
									{
OFFSET 0 -0.601470 0.601470
									}
								}
							}
						}
					}
				}
			}
		}
	}
}
MOTION
Frames: 5
Frame Time: 0.008333333333333333
-0.724000 17.907600 -1.448100 1.275800 -7.398800 6.230600 0.000000 0.000000 0.000000 -20.013500 -6.043400 -6.500700 1.224800 7.019200 19.772100 0.292000 10.119000 -18.372700 0.802600 -5.717900 -15.968000 0.000000 0.000000 0.000000 16.107100 11.364400 -14.915500 -2.710100 -10.210300 29.660600 -0.974100 2.015500 -18.084600 -0.316200 -3.614800 9.995300 -2.475000 -1.223500 1.995800 1.990000 -1.665700 -1.394300 3.504200 -0.772700 -2.423000 -13.135000 -9.870700 -17.547300 6.492100 -11.685400 20.383000 2.675500 -5.687700 10.623700 0.000000 -0.000000 0.000000 -0.075700 1.972400 -2.303200 14.841100 -23.924300 3.161200 8.880300 16.864300 -28.845200 0.000000 0.000000 0.000000 -7.125000 0.000000 0.000000 -24.132600 57.442300 7.651400 0.000000 -0.000000 0.000000 -3.919800 0.332500 19.041400 -16.084600 -25.635200 -3.682500 -21.943200 23.006000 0.148800 0.000000 0.000000 0.000000 7.125000 0.000000 -0.000000 3.648200 30.129900 1.326400
-0.524638 17.921384 -1.507088 1.753394 -7.159452 6.179227 0.000000 0.000000 0.000000 -21.159215 -5.585799 -7.041033 1.213062 6.986687 19.676060 0.281147 9.364032 -17.410705 0.759392 -5.565224 -15.528006 0.000000 0.000000 0.000000 14.810455 11.411808 -15.209121 -2.738082 -10.258518 29.817925 -0.983709 1.707626 -18.249499 -0.250917 -3.220897 8.894467 -3.006855 -1.154913 2.004079 1.766064 -1.594962 -1.203307 3.566607 -0.736886 -2.228939 -13.165167 -9.901777 -17.878311 6.586626 -11.722516 20.775946 2.693004 -5.688379 10.841892 0.000000 0.000000 0.000000 0.195674 1.839917 -2.578625 14.747188 -23.792397 3.123450 9.085227 16.540028 -28.616588 0.000000 0.000000 0.000000 -7.125000 0.000000 0.000000 -23.788777 57.270991 7.461163 0.000000 0.000000 0.000000 -4.255217 0.261563 18.336458 -15.917445 -25.408518 -3.610428 -22.015055 22.764390 -0.001461 0.000000 0.000000 0.000000 7.125000 0.000000 0.000000 3.585609 29.968592 1.317351
-0.323637 17.910338 -1.576523 1.810897 -6.735289 6.016123 0.000000 0.000000 0.000000 -21.722143 -4.780341 -7.824609 1.254104 7.099625 20.010974 0.381374 7.776785 -17.017360 0.695204 -5.329902 -14.852003 0.000000 0.000000 0.000000 14.031614 11.394073 -15.355151 -2.763715 -10.302365 29.961558 -0.978604 1.340131 -18.294826 -0.263676 -3.303408 9.124732 -3.070321 -1.155599 2.303445 1.672160 -1.606810 -1.065817 3.511202 -0.743901 -2.255607 -13.164348 -9.795849 -17.863074 6.403275 -11.535213 20.928924 2.660167 -5.625245 10.863108 0.000000 0.000000 0.000000 0.442786 1.795612 -2.763831 14.827772 -23.905587 3.155840 9.156589 16.667530 -28.990699 0.000000 0.000000 0.000000 -7.125000 0.000000 0.000000 -23.967905 57.630947 7.711973 0.000000 0.000000 0.000000 -4.531527 0.432295 17.724014 -15.840204 -25.303518 -3.577435 -21.942965 23.083924 -0.247351 0.000000 0.000000 0.000000 7.125000 0.000000 0.000000 3.632840 29.703705 1.357803
-0.133539 17.901945 -1.651721 1.918180 -6.197165 5.704278 0.000000 0.000000 0.000000 -22.341244 -3.620901 -8.699021 1.325783 7.291915 20.583236 0.462394 5.981497 -16.423711 0.717518 -5.413119 -15.090733 0.000000 0.000000 0.000000 13.253749 10.845853 -15.544323 -2.784401 -10.337460 30.076727 -0.961268 1.211664 -18.163177 -0.248432 -3.207149 8.855964 -3.349055 -1.205662 2.715190 1.614472 -1.694622 -0.844940 3.619255 -0.787668 -2.246355 -13.329594 -9.736176 -17.905005 6.317893 -11.389513 21.200998 2.677664 -5.581929 10.962116 0.000000 0.000000 0.000000 0.661434 1.684745 -3.048929 14.954180 -24.082202 3.207255 9.371637 16.237393 -28.970329 0.000000 0.000000 0.000000 -7.125000 0.000000 0.000000 -23.732864 57.659206 7.643106 0.000000 0.000000 0.000000 -4.809828 0.747340 17.778339 -16.110612 -25.670400 -3.693716 -21.958598 22.847698 -0.072346 0.000000 0.000000 0.000000 7.125000 0.000000 0.000000 3.627201 29.892061 1.339433
0.025190 17.883938 -1.729560 2.087439 -6.012833 5.297988 0.000000 0.000000 0.000000 -22.959125 -2.552435 -9.349791 1.386284 7.449644 21.054546 0.519491 4.538429 -16.034492 0.686871 -5.298676 -14.762398 0.000000 0.000000 0.000000 12.458803 10.270214 -15.915625 -2.890310 -10.515287 30.662117 -0.953980 1.669075 -17.973198 -0.264213 -3.305235 9.129904 -3.900615 -1.167027 3.064658 1.464440 -1.674943 -0.439451 3.776675 -0.783578 -2.015771 -13.368720 -9.555940 -17.743568 6.520691 -11.175885 20.877541 2.802166 -5.467116 10.804664 0.000000 0.000000 0.000000 1.247318 1.279313 -3.835881 15.068290 -24.241142 3.253937 10.107187 16.207212 -27.884128 0.000000 0.000000 0.000000 -7.125000 0.000000 0.000000 -22.222759 56.820516 6.663969 0.000000 0.000000 0.000000 -4.633737 0.592542 17.007024 -16.288317 -25.910059 -3.771074 -21.826105 22.547671 -0.514661 0.000000 0.000000 0.000000 7.125000 0.000000 0.000000 3.714516 29.416136 1.413991
